<svg id="Logo" xmlns="http://www.w3.org/2000/svg" width="158.049" height="59" viewBox="0 0 158.049 59">
  <g id="Group_19" data-name="Group 19">
    <path id="Path_3" data-name="Path 3" d="M29.5,59A29.5,29.5,0,1,1,59,29.5,29.544,29.544,0,0,1,29.5,59Zm0-52.772A23.272,23.272,0,1,0,52.772,29.5,23.277,23.277,0,0,0,29.5,6.228Z" fill="#fb6664"/>
  </g>
  <path id="Path_15" data-name="Path 15" d="M.82-28.249v5.043H8.61V0h5.7V-23.206H22.1v-5.043ZM30.258.492A10.009,10.009,0,0,0,40.549-9.553,10.018,10.018,0,0,0,30.258-19.639,10.018,10.018,0,0,0,19.967-9.553,10.009,10.009,0,0,0,30.258.492Zm0-5A4.845,4.845,0,0,1,25.42-9.553a4.856,4.856,0,0,1,4.838-5.084A4.856,4.856,0,0,1,35.1-9.553,4.845,4.845,0,0,1,30.258-4.51Zm27.88-12.3a7.515,7.515,0,0,0-6.15-2.829c-4.92,0-9.389,3.895-9.389,10.045S47.068.492,51.988.492a7.662,7.662,0,0,0,6.15-2.87V0h5.371V-29.561H58.138ZM53.013-4.51a5.058,5.058,0,0,1-4.961-5.084,5,5,0,0,1,4.961-5.043,5.047,5.047,0,0,1,4.961,5.043A5.032,5.032,0,0,1,53.013-4.51ZM77,.492A10.009,10.009,0,0,0,87.289-9.553,10.018,10.018,0,0,0,77-19.639,10.018,10.018,0,0,0,66.707-9.553,10.009,10.009,0,0,0,77,.492Zm0-5A4.845,4.845,0,0,1,72.16-9.553,4.856,4.856,0,0,1,77-14.637a4.856,4.856,0,0,1,4.838,5.084A4.845,4.845,0,0,1,77-4.51Z" transform="translate(70.76 45)" fill="#fb6666"/>
</svg>
